<?xml version="1.0" encoding="UTF-8" standalone="no"?>
<!DOCTYPE svg PUBLIC "-//W3C//DTD SVG 1.1//EN" "http://www.w3.org/Graphics/SVG/1.1/DTD/svg11.dtd">
<svg width="100%" height="100%" viewBox="0 0 1024 1024" version="1.1" xmlns="http://www.w3.org/2000/svg" xmlns:xlink="http://www.w3.org/1999/xlink" xml:space="preserve" xmlns:serif="http://www.serif.com/" style="fill-rule:evenodd;clip-rule:evenodd;stroke-linejoin:round;stroke-miterlimit:2;">
    <path d="M960,264L960,760C960,870.383 870.383,960 760,960L264,960C153.617,960 64,870.383 64,760L64,264C64,153.617 153.617,64 264,64L760,64C870.383,64 960,153.617 960,264ZM350,356C314.677,356 286,384.677 286,420C286,455.323 314.677,484 350,484C385.323,484 414,455.323 414,420C414,384.677 385.323,356 350,356ZM512,356C476.677,356 448,384.677 448,420C448,455.323 476.677,484 512,484C547.323,484 576,455.323 576,420C576,384.677 547.323,356 512,356ZM512,520L392,720L632,720L512,520ZM674,356C638.677,356 610,384.677 610,420C610,455.323 638.677,484 674,484C709.323,484 738,455.323 738,420C738,384.677 709.323,356 674,356Z" style="fill:rgb(11,11,11);"/>
</svg>
