<?xml version="1.0" encoding="UTF-8" standalone="no"?>
<!DOCTYPE svg PUBLIC "-//W3C//DTD SVG 1.1//EN" "http://www.w3.org/Graphics/SVG/1.1/DTD/svg11.dtd">
<svg width="100%" height="100%" viewBox="0 0 1024 1024" version="1.1" xmlns="http://www.w3.org/2000/svg" xmlns:xlink="http://www.w3.org/1999/xlink" xml:space="preserve" xmlns:serif="http://www.serif.com/" style="fill-rule:evenodd;clip-rule:evenodd;stroke-linejoin:round;stroke-miterlimit:2;">
    <g transform="matrix(1.37541,0,0,1.37541,-177.302,-210.337)">
        <path d="M501.162,198.005C681.736,198.005 828.339,344.607 828.339,525.181C828.339,705.754 681.736,852.357 501.162,852.357C320.589,852.357 173.986,705.754 173.986,525.181C173.986,344.607 320.589,198.005 501.162,198.005ZM501.162,530.997L413.915,676.409L588.409,676.409L501.162,530.997ZM618.946,411.76C593.264,411.76 572.414,432.61 572.414,458.291C572.414,483.973 593.264,504.823 618.946,504.823C644.628,504.823 665.478,483.973 665.478,458.291C665.478,432.61 644.628,411.76 618.946,411.76ZM501.162,411.76C475.481,411.76 454.631,432.61 454.631,458.291C454.631,483.973 475.481,504.823 501.162,504.823C526.844,504.823 547.694,483.973 547.694,458.291C547.694,432.61 526.844,411.76 501.162,411.76ZM383.379,411.76C357.697,411.76 336.847,432.61 336.847,458.291C336.847,483.973 357.697,504.823 383.379,504.823C409.061,504.823 429.911,483.973 429.911,458.291C429.911,432.61 409.061,411.76 383.379,411.76Z"/>
    </g>
</svg>
